<?xml version="1.0" standalone="no"?>
<!DOCTYPE svg PUBLIC "-//W3C//DTD SVG 20010904//EN"
 "http://www.w3.org/TR/2001/REC-SVG-20010904/DTD/svg10.dtd">
<svg version="1.0" xmlns="http://www.w3.org/2000/svg"
 width="512.000000pt" height="512.000000pt" viewBox="0 0 512.000000 512.000000"
 preserveAspectRatio="xMidYMid meet">

<g transform="translate(0.000000,512.000000) scale(0.100000,-0.100000)"
fill="#000000" stroke="none">
<path d="M2335 5004 c-737 -36 -1408 -393 -1847 -981 -217 -291 -365 -624
-437 -979 -21 -104 -47 -302 -40 -307 2 -2 53 -26 114 -54 l109 -51 36 61 c48
82 157 190 280 277 134 95 203 165 289 293 127 190 239 291 416 378 212 103
374 129 940 149 387 14 544 50 955 216 168 68 266 96 404 119 48 8 102 23 120
33 17 10 54 51 81 92 59 88 128 144 208 169 l59 18 -94 71 c-258 196 -557 340
-875 422 -206 54 -504 84 -718 74z"/>
<path d="M4060 4231 c-64 -20 -131 -74 -159 -128 -34 -67 6 -143 74 -143 36 0
47 8 109 81 23 27 63 24 91 -8 14 -16 34 -38 45 -50 39 -45 129 -18 144 43 10
37 -35 124 -79 158 -64 49 -155 68 -225 47z"/>
<path d="M2012 3579 c-146 -73 -173 -199 -55 -251 157 -69 398 80 343 213 -31
74 -177 94 -288 38z"/>
<path d="M1494 3161 c-180 -49 -314 -158 -314 -255 1 -77 60 -117 185 -124
143 -7 294 44 394 134 61 55 81 89 81 142 0 43 -21 72 -73 99 -49 26 -185 28
-273 4z"/>
<path d="M4755 3126 c-119 -79 -215 -210 -332 -454 -177 -370 -318 -517 -778
-811 -88 -57 -166 -109 -173 -115 -11 -11 -9 -39 13 -162 41 -240 73 -326 142
-383 61 -50 117 -57 264 -32 135 23 300 28 364 10 50 -14 105 -68 105 -103 0
-14 4 -26 9 -26 11 0 84 99 154 210 64 102 177 333 222 454 147 399 187 839
115 1261 -24 143 -33 178 -46 181 -5 2 -31 -12 -59 -30z"/>
<path d="M2616 2839 c-152 -25 -276 -160 -219 -237 42 -57 129 -74 232 -48
114 29 211 116 211 189 0 71 -105 116 -224 96z"/>
<path d="M522 2180 c-91 -57 -76 -220 32 -350 156 -184 383 -246 470 -127 32
43 28 134 -9 212 -41 86 -161 205 -251 247 -90 43 -191 50 -242 18z"/>
<path d="M2440 958 c-60 -24 -196 -59 -316 -80 -125 -22 -149 -23 -739 -23
-335 0 -632 3 -660 7 l-50 7 85 -80 c300 -281 652 -481 1030 -585 437 -120
872 -121 1317 -4 385 102 791 339 1073 624 l64 66 -252 0 c-237 0 -255 -1
-280 -20 -26 -19 -43 -20 -513 -20 -550 -1 -537 -2 -652 80 -59 42 -68 45
-107 28z"/>
</g>
</svg>
